<svg xmlns="http://www.w3.org/2000/svg" version="1.1" xmlns:xlink="http://www.w3.org/1999/xlink" xmlns:svgjs="http://svgjs.dev/svgjs" viewBox="0 0 800 800"><defs><linearGradient x1="50%" y1="0%" x2="50%" y2="100%" id="ccchaos-grad"><stop stop-color="#18BFFF" stop-opacity="1" offset="0%"></stop><stop stop-color="#7C3AED" stop-opacity="1" offset="100%"></stop></linearGradient></defs><g stroke-width="2" stroke="url(#ccchaos-grad)" fill="none" stroke-linecap="round"><path d="M381.57 58.55Q390.47 64.83 399.66 71.5 409.17 78.52 418.98 85.84 429.09 93.37 439.51 101.06 450.2 108.8 461.16 116.52 472.36 124.11 483.78 131.48 495.36 138.56 507.09 145.26 518.92 151.52 530.8 157.29 542.69 162.53 554.53 167.23 566.29 171.4 577.91 175.05 589.35 178.22 600.55 180.98 611.48 183.4 622.09 185.56 632.35 187.58 642.23 189.55 651.7 191.6 660.75 193.82 677.28 199.48 692.47 206.56 699.34 218.66 692.14 236.16 684.57 246.09 677.07 256.03 670.12 265.97 664.11 275.91 659.42 285.85 656.33 295.78 655.02 305.72 655.57 315.66 657.95 325.6 662.01 335.53 667.52 345.47 674.13 355.41 681.46 365.35 689.06 375.29 696.47 385.22 703.26 395.16 709.01 405.1 713.37 415.04 716.09 424.98 717.01 434.91 716.06 444.85 713.3 454.79 708.91 464.73 703.13 474.67 696.33 484.6 688.91 494.54 681.31 504.48 673.99 514.42 667.4 524.36 661.92 534.29 651.1 538.91 640.72 544.6 630.8 551.38 621.33 559.2 612.32 567.97 603.75 577.59 595.6 587.91 587.86 598.75 580.5 609.92 573.47 621.23 566.74 632.45 560.26 643.37 554 653.79 547.9 663.52 541.91 672.38 535.99 680.26 524.09 692.02 511.95 700.22 499 702.87 485.36 702.85 470.32 700.16 454.35 697.16 445.82 696.06 436.97 695.55 427.82 695.82 418.39 697.06 409.16 689.47 399.67 683.13 389.92 678.07 379.95 674.27 369.78 671.67 359.43 670.17 348.94 669.64 338.35 669.9 327.68 670.76 316.97 672 306.25 673.41 295.55 674.74 284.9 675.78 274.33 676.31 263.87 676.16 253.53 675.14 243.33 673.13 233.3 670.03 223.43 665.79 213.75 660.37 204.24 653.81 194.91 646.17 185.77 637.54 176.79 628.06 167.97 617.88 159.3 607.19 150.76 596.18 142.33 585.06 134 574.03 125.73 563.31 117.53 553.06 109.35 543.48 110.4 533.43 111.68 523.37 113.09 513.32 114.56 503.27 115.99 493.22 117.3 483.17 118.42 473.11 119.27 463.06 119.8 453.01 119.98 442.96 119.81 432.91 119.28 422.85 118.44 412.8 117.33 402.75 116.02 392.7 114.59 382.65 113.12 372.59 111.7 362.54 110.43 352.49 109.36 342.44 108.58 332.39 108.12 322.33 108.02 312.28 108.27 302.23 108.87 292.18 109.77 282.13 110.93 272.08 112.27 262.02 113.72 251.97 115.18 241.92 122.07 225.68 137.32 217.47 147.05 215.62 156.73 213.83 166.35 211.98 175.87 209.97 185.28 207.67 194.56 205 203.7 201.89 212.67 198.27 221.47 194.09 230.09 189.34 238.52 184.02 246.77 178.14 254.83 171.75 262.7 164.89 270.41 157.64 277.96 150.08 285.36 142.3 292.65 134.4 299.85 126.48 306.98 118.62 314.07 110.93 321.15 103.49 328.26 96.38 335.43 89.64 342.7 83.32 350.09 77.46 357.65 72.07 365.39 67.14 377.46 60.6 381.57 58.55" stroke-dasharray="2 5" transform="rotate(0, 400, 400)" opacity="0.94"></path><path d="M382.9 70.83Q392.12 76.9 401.61 83.36 411.37 90.15 421.39 97.22 431.66 104.52 442.16 111.97 452.87 119.5 463.77 127.01 474.82 134.44 486 141.68 497.26 148.67 508.57 155.33 519.89 161.6 531.18 167.42 542.4 172.75 553.51 177.57 564.45 181.88 575.21 185.68 585.72 189 595.97 191.88 605.91 194.39 615.53 196.59 624.78 198.56 633.67 200.4 650.05 204.19 665.24 208.5 681.31 223.19 677.05 241.33 669.86 250.88 662.96 260.43 656.73 269.98 651.51 279.53 647.59 289.09 645.2 298.64 644.47 308.19 645.43 317.74 648.03 327.3 652.13 336.85 657.51 346.4 663.85 355.95 670.81 365.51 678.01 375.06 685.04 384.61 691.51 394.16 697.06 403.71 701.39 413.27 704.25 422.82 705.48 432.37 705.02 441.92 702.89 451.48 699.22 461.03 694.19 470.58 688.1 480.13 681.28 489.69 674.11 499.24 667 508.79 660.32 518.34 654.46 527.9 643.63 533.58 633.18 540.25 623.12 547.85 613.46 556.32 604.21 565.54 595.38 575.4 586.94 585.74 578.89 596.39 571.22 607.17 563.89 617.89 556.89 628.38 550.17 638.45 543.71 647.92 537.46 656.65 525.49 670.86 513.8 681.96 502.13 687.69 490.24 690.47 477.63 689.46 464.41 687.15 449.95 684.61 434.68 683.16 426.55 683.53 418.15 684.79 408.65 677.49 398.93 671.34 389.03 666.36 378.97 662.53 368.78 659.81 358.49 658.12 348.12 657.34 337.72 657.32 327.31 657.91 316.91 658.91 306.57 660.14 296.29 661.4 286.11 662.47 276.06 663.19 266.13 663.36 256.36 662.83 246.75 661.46 237.31 659.16 228.05 655.84 218.96 651.46 210.05 646.02 201.32 639.55 192.75 632.1 184.33 623.76 176.05 614.66 167.9 604.93 159.86 594.74 151.91 584.25 144.03 573.64 136.21 563.1 128.42 552.8 120.64 542.92 121.89 533.19 123.3 523.45 124.81 513.72 126.33 503.99 127.77 494.25 129.06 484.52 130.13 474.79 130.91 465.05 131.36 455.32 131.45 445.59 131.19 435.85 130.59 426.12 129.67 416.39 128.49 406.66 127.12 396.92 125.63 387.19 124.11 377.46 122.63 367.72 121.29 357.99 120.15 348.26 119.28 338.53 118.73 328.79 118.53 319.06 118.68 309.33 119.19 299.59 120.02 289.86 121.12 280.13 122.44 270.4 123.91 260.66 125.43 250.93 132.35 235.42 147.24 227.96 156.7 226.33 166.13 224.62 175.52 222.75 184.83 220.62 194.06 218.13 203.19 215.22 212.19 211.83 221.05 207.93 229.75 203.48 238.29 198.48 246.65 192.95 254.84 186.91 262.83 180.41 270.65 173.52 278.28 166.3 285.74 158.83 293.04 151.19 300.18 143.49 307.2 135.8 314.1 128.22 320.91 120.83 327.66 113.69 334.37 106.88 341.08 100.45 354.64 89.07 368.45 79 379.24 72.78 382.9 70.83" stroke-dasharray="2 8" transform="rotate(4.04, 400, 400)" opacity="0.26"></path><path d="M385.78 83.11Q395.21 88.97 404.87 95.2 414.75 101.75 424.82 108.58 435.07 115.63 445.48 122.84 456.02 130.14 466.66 137.45 477.38 144.69 488.14 151.79 498.9 158.67 509.63 165.27 520.31 171.52 530.88 177.37 541.31 182.78 551.58 187.72 561.64 192.17 571.46 196.13 581.03 199.61 590.3 202.65 607.73 207.43 624.14 211.39 638.77 214.77 652.34 218.34 666.56 230.75 662.04 247.54 655.35 256.72 649.1 265.91 643.61 275.09 639.17 284.28 636 293.47 634.26 302.65 634.05 311.84 635.37 321.02 638.15 330.21 642.26 339.39 647.49 348.58 653.56 357.77 660.16 366.95 666.96 376.14 673.61 385.32 679.77 394.51 685.12 403.69 689.38 412.88 692.35 422.07 693.86 431.25 693.84 440.44 692.3 449.62 689.3 458.81 685.01 467.99 679.64 477.18 673.47 486.36 666.81 495.55 660.01 504.74 653.42 513.92 647.36 523.11 636.62 529.71 626.19 537.16 616.08 545.37 606.32 554.26 596.92 563.7 587.89 573.57 579.22 583.72 570.91 593.99 562.96 604.21 555.35 614.24 548.06 623.9 541.08 633.04 534.37 641.54 527.91 649.27 515.69 661.58 503.92 670.98 483.97 676.42 469.54 676.52 457.33 674.13 444.59 671.74 430.78 671.12 416.26 672.51 406.61 665.52 396.82 659.57 386.91 654.67 376.91 650.84 366.85 648.02 356.76 646.15 346.66 645.13 336.59 644.85 326.56 645.17 316.6 645.93 306.74 646.97 296.98 648.1 287.36 649.16 277.89 649.98 268.57 650.39 259.41 650.25 250.42 649.42 241.61 647.81 232.97 645.31 224.5 641.88 216.2 637.49 208.05 632.13 200.05 625.84 192.19 618.67 184.44 610.69 176.8 602.03 169.24 592.78 161.76 583.1 154.32 573.14 146.92 563.04 139.54 552.98 132.15 543.1 133.55 533.68 135.07 524.26 136.65 514.84 138.19 505.42 139.61 496.01 140.86 486.59 141.85 477.17 142.54 467.75 142.9 458.33 142.9 448.92 142.55 439.5 141.87 430.08 140.88 420.66 139.64 411.24 138.22 401.83 136.68 392.41 135.11 382.99 133.58 373.57 132.18 364.15 130.97 354.73 130.02 345.32 129.37 335.9 129.07 326.48 129.12 317.06 129.52 307.64 130.25 298.22 131.28 288.81 132.55 279.39 134 269.97 135.54 260.55 142.44 245.67 156.92 238.71 166.1 237.14 175.26 235.39 184.4 233.38 193.49 231.04 202.52 228.29 211.46 225.09 220.31 221.41 229.04 217.21 237.64 212.49 246.1 207.26 254.39 201.55 262.52 195.39 270.48 188.83 278.26 181.94 285.86 174.78 293.28 167.43 300.52 159.98 307.6 152.5 314.52 145.07 321.29 137.78 327.94 130.69 334.48 123.88 347.3 111.46 360 100.22 379.28 87.09 385.78 83.11" stroke-dasharray="9 3" transform="rotate(8.08, 400, 400)" opacity="0.76"></path><path d="M389.96 95.39Q399.45 101.05 409.12 107.05 418.93 113.36 428.87 119.94 438.92 126.73 449.05 133.69 459.23 140.74 469.45 147.83 479.66 154.87 489.84 161.81 499.96 168.57 509.99 175.09 519.89 181.31 529.64 187.17 539.22 192.63 548.58 197.66 557.72 202.25 566.6 206.36 583.38 213.03 599.25 218.47 613.55 222.33 626.91 225.62 646.89 231.65 659.94 237.11 653.58 245.95 647.19 254.78 641.08 263.61 635.52 272.45 630.79 281.28 627.1 290.12 624.63 298.95 623.5 307.79 623.75 316.62 625.38 325.45 628.31 334.29 632.4 343.12 637.46 351.96 643.25 360.79 649.5 369.63 655.92 378.46 662.19 387.29 668.04 396.13 673.17 404.96 677.36 413.8 680.4 422.63 682.15 431.47 682.53 440.3 681.52 449.13 679.16 457.97 675.58 466.8 670.93 475.64 665.44 484.47 659.36 493.3 652.98 502.14 646.61 510.97 640.53 519.81 629.97 527.13 619.65 535.13 609.6 543.72 599.83 552.79 590.37 562.22 581.22 571.89 572.39 581.65 563.89 591.37 555.71 600.91 547.85 610.13 540.31 618.89 533.06 627.08 526.1 634.59 519.4 641.34 506.8 651.85 494.77 659.67 475.06 663.69 461.16 663.37 449.83 661.16 438.19 659.08 425.81 658.72 412.89 660.22 403.26 653.53 393.55 647.78 383.8 642.99 374.02 639.16 364.25 636.26 354.51 634.24 344.82 633.01 335.2 632.48 325.68 632.54 316.27 633.05 306.98 633.87 297.83 634.86 288.83 635.86 279.99 636.72 262.9 637.17 246.31 636.01 230.52 631.22 215.18 623.89 207.73 618.71 200.4 612.68 193.16 605.85 186.01 598.3 178.92 590.11 171.88 581.38 164.86 572.24 157.87 562.81 150.87 553.23 143.85 543.64 145.38 534.54 146.98 525.44 148.58 516.34 150.11 507.23 151.49 498.13 152.66 489.03 153.56 479.93 154.15 470.83 154.41 461.73 154.31 452.62 153.87 443.52 153.11 434.42 152.06 425.32 150.77 416.22 149.3 407.11 147.72 398.01 146.11 388.91 144.54 379.81 143.08 370.71 141.81 361.6 140.78 352.5 140.05 343.4 139.64 334.3 139.57 325.2 139.86 316.09 140.48 306.99 141.4 297.89 142.59 288.79 143.99 279.69 145.53 270.58 152.33 256.25 166.37 249.54 175.23 247.89 184.1 245.98 192.97 243.75 201.81 241.13 210.61 238.08 219.36 234.57 228.03 230.57 236.61 226.09 245.09 221.12 253.44 215.69 261.66 209.83 269.74 203.59 277.65 197.01 285.41 190.16 292.99 183.11 300.4 175.92 307.63 168.67 314.69 161.45 321.59 154.3 328.32 147.32 334.9 140.55 341.33 134.06 353.8 122.27 366 111.62 383.97 99.17 389.96 95.39" stroke-dasharray="4 6" transform="rotate(12.12, 400, 400)" opacity="0.48"></path><path d="M395.04 107.67Q413.91 118.88 433.1 131.27 452.44 144.5 471.74 158.15 490.78 171.74 509.36 184.77 527.3 196.77 544.41 207.38 560.56 216.35 575.66 223.59 589.64 229.19 602.49 233.4 614.28 236.64 625.1 239.42 635.11 242.34 644.49 245.98 632.58 262.97 622.26 279.96 615.31 296.95 612.91 313.95 615.46 330.94 622.54 347.93 632.93 364.92 644.87 381.91 656.32 398.9 665.32 415.89 670.35 432.88 670.55 449.87 665.88 466.86 657.14 483.85 645.82 500.84 633.85 517.83 613.45 533.96 593.87 551.69 575.26 570.16 557.75 588.41 541.38 605.49 526.15 620.53 512.01 632.87 498.87 642.1 486.58 648.09 474.97 651.05 463.84 651.51 452.99 650.24 442.21 648.2 431.3 646.46 420.07 646.06 408.36 647.95 389.47 636.01 370.66 627.53 352.07 622.41 333.87 620.23 316.16 620.3 299.04 621.71 282.55 623.44 266.71 624.47 251.5 623.85 236.87 620.81 222.74 614.86 209.01 605.78 195.56 593.66 182.29 578.9 169.06 562.14 155.77 544.22 159.03 526.66 162.11 509.1 164.48 491.53 165.75 473.97 165.7 456.41 164.33 438.85 161.88 421.29 158.77 403.73 155.52 386.16 152.69 368.6 150.77 351.04 150.07 333.48 150.73 315.91 152.62 298.35 155.42 280.79 158.66 263.23 175.6 260.26 192.68 256.25 209.81 250.77 226.88 243.56 243.74 234.52 260.29 223.75 276.41 211.51 291.99 198.19 306.96 184.29 321.28 170.33 334.93 156.83 347.92 144.24 360.32 132.9 372.22 123.02 389.39 111.15 395.04 107.67" stroke-dasharray="8 3" transform="rotate(16.16, 400, 400)" opacity="0.46"></path><path d="M400.57 119.95Q418.79 130.71 437.08 142.57 455.27 155.26 473.19 168.41 490.68 181.57 507.57 194.31 523.72 206.19 539.02 216.87 553.39 226.07 566.77 233.66 579.17 239.66 590.61 244.23 601.19 247.66 611.03 250.38 620.28 252.87 629.13 255.67 618.24 272 609.33 288.33 603.79 304.66 602.49 320.99 605.61 337.32 612.68 353.65 622.6 369.97 633.82 386.3 644.61 402.63 653.27 418.96 658.48 435.29 659.41 451.62 655.92 467.94 648.56 484.27 638.47 500.6 627.21 516.93 607.46 533.35 588.31 550.7 569.91 568.18 552.39 584.95 535.85 600.23 520.31 613.36 505.78 623.86 492.21 631.49 479.51 636.24 467.58 638.39 456.26 638.45 445.4 637.15 434.83 635.32 424.36 633.88 413.82 633.73 403.06 635.67 384.99 624.25 367.18 615.93 349.78 610.66 332.87 608.1 316.53 607.68 300.8 608.67 285.69 610.2 271.19 611.38 257.25 611.37 243.8 609.44 230.75 605.07 218 597.95 205.45 588.02 192.98 575.47 180.49 560.75 167.87 544.46 171.18 527.55 174.14 510.65 176.3 493.75 177.32 476.85 177.05 459.95 175.52 443.05 172.98 426.14 169.81 409.24 166.52 392.34 163.61 375.44 161.54 358.54 160.62 341.63 161 324.73 162.63 307.83 165.24 290.93 168.44 274.02 184.62 270.66 201.01 266.05 217.5 259.88 234.01 252.03 250.41 242.49 266.61 231.43 282.48 219.15 297.92 206.04 312.85 192.55 327.19 179.17 340.9 166.33 353.97 154.42 366.42 143.73 378.27 134.42 395.1 123.24 400.57 119.95" stroke-dasharray="1 7" transform="rotate(20.200000000000003, 400, 400)" opacity="0.56"></path><path d="M406.05 132.23Q423.28 142.53 440.36 153.87 457.16 166.01 473.53 178.62 489.34 191.32 504.49 203.72 518.87 215.43 532.43 226.11 545.13 235.49 556.97 243.42 567.97 249.83 578.21 254.82 587.79 258.59 596.83 261.43 605.49 263.76 613.96 266.03 604.25 281.7 596.76 297.38 592.55 313.05 592.22 328.72 595.81 344.4 602.82 360.07 612.25 375.74 622.77 391.41 632.91 407.09 641.22 422.76 646.53 438.43 648.1 454.1 645.7 469.77 639.67 485.45 630.86 501.12 620.52 516.79 601.57 533.03 583.02 549.59 565.02 565.76 547.7 580.87 531.16 594.29 515.48 605.54 500.67 614.31 486.75 620.48 473.68 624.14 461.38 625.61 449.77 625.38 438.72 624.08 428.12 622.47 417.81 621.33 407.65 621.41 397.49 623.39 380.53 612.49 363.99 604.37 347.95 598.98 332.47 596.07 317.57 595.2 303.27 595.74 289.54 597 276.34 598.21 263.61 598.62 251.27 597.59 239.24 594.57 227.4 589.2 215.67 581.31 203.94 570.96 192.13 558.39 180.15 544.01 183.41 527.79 186.19 511.58 188.09 495.36 188.85 479.14 188.36 462.93 186.68 446.71 184.06 430.49 180.86 414.28 177.54 398.06 174.56 381.84 172.35 365.63 171.22 349.41 171.33 333.19 172.65 316.97 175.02 300.76 178.08 284.54 193.48 280.59 209.11 275.27 224.9 268.4 240.78 259.95 256.65 250 272.4 238.76 287.94 226.55 303.16 213.74 317.97 200.74 332.3 187.97 346.08 175.82 359.26 164.61 371.83 154.57 383.79 145.83 400.62 135.32 406.05 132.23" stroke-dasharray="7 1" transform="rotate(24.24, 400, 400)" opacity="0.40"></path><path d="M410.98 144.5Q426.94 154.34 442.6 165.15 457.83 176.72 472.55 188.77 486.65 200.99 500.08 213 512.77 224.48 524.72 235.1 535.92 244.61 546.4 252.82 556.22 259.64 565.46 265.09 574.22 269.27 582.65 272.42 590.75 283.34 584.54 306.88 581.57 321.9 582.1 336.91 586.06 351.93 592.95 366.94 601.88 381.96 611.73 396.97 621.22 411.99 629.15 427 634.52 442.02 636.62 457.03 635.2 472.04 630.44 487.06 622.94 502.07 613.66 517.09 595.67 532.68 577.88 548.09 560.46 562.74 543.52 576.06 527.19 587.62 511.54 597.07 496.63 604.24 482.48 609.11 469.11 611.83 456.47 612.74 444.54 612.29 433.22 611.06 422.43 609.68 412.07 608.82 402.01 609.11 392.15 611.11 376.55 600.74 361.45 592.83 346.89 587.37 332.9 584.16 319.46 582.86 306.57 582.96 294.16 583.89 282.2 585.02 270.6 585.69 259.29 585.33 248.17 583.41 237.17 579.56 226.18 573.55 215.13 565.29 203.95 554.89 192.57 542.59 195.71 527.09 198.24 511.58 199.85 496.08 200.33 480.58 199.62 465.07 197.81 449.57 195.12 434.07 191.91 418.56 188.58 403.06 185.55 387.56 183.22 372.05 181.88 356.55 181.7 341.05 182.71 325.54 184.77 310.04 187.62 294.54 202.19 289.87 217.02 283.8 232.06 276.26 247.24 267.3 262.48 257.05 277.69 245.76 292.8 233.72 307.7 221.3 322.3 208.86 336.53 196.76 350.31 185.32 363.58 174.82 376.29 165.43 388.43 157.26 405.48 147.41 410.98 144.5" stroke-dasharray="6 8" transform="rotate(28.28, 400, 400)" opacity="0.62"></path><path d="M414.92 156.78Q429.41 166.14 443.5 176.41 457.09 187.4 470.14 198.88 482.57 210.57 494.37 222.16 505.52 233.34 516.03 243.84 525.92 253.41 535.25 261.84 544.09 269.03 552.52 274.94 568.59 282.72 584.53 287.91 577.43 302.25 572.69 316.6 570.85 330.95 572.12 345.3 576.35 359.64 583.07 373.99 591.5 388.34 600.68 402.68 609.54 417.03 617.08 431.38 622.44 445.72 624.99 460.07 624.45 474.42 620.87 488.77 614.67 503.12 606.56 517.46 589.62 532.02 572.74 546.01 556.06 558.96 539.7 570.46 523.76 580.2 508.34 587.96 493.51 593.68 479.3 597.41 465.76 599.35 452.89 599.82 440.67 599.23 429.06 598.09 418.02 596.94 407.47 596.35 397.33 596.82 387.51 598.84 373.43 588.99 359.87 581.32 346.85 575.83 334.34 572.37 322.33 570.67 310.76 570.34 299.6 570.91 288.77 571.86 278.2 572.64 267.81 572.74 257.52 571.7 247.26 569.12 236.95 564.75 226.52 558.42 215.92 550.11 205.09 539.95 208.03 525.19 210.27 510.43 211.56 495.67 211.76 480.91 210.84 466.15 208.9 451.39 206.17 436.63 202.96 421.88 199.63 407.12 196.58 392.36 194.15 377.6 192.61 362.84 192.15 348.08 192.82 333.33 194.54 318.57 197.11 303.81 210.81 298.36 224.8 291.56 239.01 283.43 253.42 274.07 267.95 263.66 282.53 252.43 297.1 240.69 311.56 228.75 325.84 216.93 339.85 205.53 353.53 194.83 366.81 185.04 379.62 176.3 391.92 168.69 409.3 159.5 414.92 156.78" stroke-dasharray="10 6" transform="rotate(32.32, 400, 400)" opacity="0.15"></path><path d="M417.5 169.07Q430.42 177.95 442.89 187.67 454.86 198.07 466.29 208.96 477.17 220.09 487.49 231.2 497.27 242.04 506.53 252.34 515.33 261.89 523.71 270.47 531.77 277.97 539.57 284.31 554.89 293.05 570.43 298.96 564.67 312.62 561.2 326.28 560.37 339.94 562.26 353.61 566.69 367.27 573.19 380.93 581.11 394.6 589.63 408.26 597.88 421.92 605.02 435.58 610.31 449.25 613.21 462.91 613.43 476.57 610.95 490.24 606.01 503.9 599.13 517.57 583.33 530.78 567.47 543.14 551.68 554.31 536.06 564 520.71 572 505.72 578.22 491.16 582.65 477.08 585.41 463.55 586.7 450.57 586.83 438.17 586.18 426.34 585.16 415.04 584.25 404.26 583.9 393.94 584.54 384.01 586.55 371.52 577.23 359.51 569.83 347.98 564.35 336.89 560.69 326.21 558.63 315.88 557.88 305.84 558.07 296.02 558.77 286.36 559.53 276.79 559.92 267.24 559.51 257.64 557.96 247.93 554.97 238.06 550.34 227.99 543.99 217.68 535.91 220.34 521.93 222.25 507.94 223.21 493.96 223.12 479.98 222 466 219.95 452.01 217.19 438.03 214 424.05 210.71 410.06 207.65 396.08 205.13 382.1 203.42 368.12 202.69 354.13 203.01 340.15 204.35 326.17 206.58 312.19 219.39 305.97 232.49 298.52 245.83 289.92 259.4 280.3 273.14 269.86 286.99 258.84 300.9 247.5 314.8 236.12 328.63 224.97 342.3 214.32 355.74 204.36 368.9 195.29 381.7 187.2 394.09 180.15 411.77 171.6 417.5 169.07" stroke-dasharray="10 4" transform="rotate(36.36, 400, 400)" opacity="0.67"></path><path d="M418.49 181.34Q429.83 189.74 440.73 198.9 451.15 208.7 461.11 218.98 470.59 229.53 479.63 240.13 488.23 250.56 496.46 260.6 504.36 270.03 512 278.69 519.45 286.42 526.79 293.13 541.56 302.88 556.82 309.74 552.37 322.7 550.07 335.66 550.12 348.62 552.52 361.57 557.05 374.53 563.3 387.49 570.7 400.44 578.58 413.4 586.23 426.36 592.95 439.32 598.13 452.27 601.3 465.23 602.17 478.19 600.67 491.15 596.93 504.11 591.29 517.06 576.69 528.7 561.95 539.33 547.17 548.71 532.44 556.66 517.84 563.06 503.46 567.9 489.37 571.22 475.63 573.17 462.29 573.95 449.39 573.84 436.96 573.17 425.02 572.31 413.57 571.62 402.59 571.5 392.07 572.28 381.96 574.27 371.02 565.49 360.51 558.38 350.38 552.95 340.6 549.13 331.11 546.76 321.87 545.62 312.81 545.42 303.88 545.81 295.01 546.44 286.15 546.95 277.24 546.97 268.22 546.18 259.05 544.31 249.69 541.14 240.11 536.52 230.29 530.38 232.61 517.21 234.16 504.03 234.78 490.85 234.42 477.67 233.11 464.49 230.97 451.32 228.2 438.14 225.05 424.96 221.8 411.78 218.75 398.61 216.17 385.43 214.31 372.25 213.32 359.07 213.3 345.9 214.25 332.72 216.08 319.54 227.98 312.62 240.15 304.65 252.59 295.72 265.26 286.01 278.13 275.69 291.16 265 304.32 254.16 317.54 243.42 330.76 233 343.94 223.11 357 213.92 369.88 205.56 382.52 198.11 394.87 191.61 412.68 183.7 418.49 181.34" stroke-dasharray="2 1" transform="rotate(40.400000000000006, 400, 400)" opacity="0.60"></path><path d="M417.8 193.62Q427.64 201.52 437.07 210.13 446.11 219.32 454.77 228.97 463.05 238.91 471 248.96 478.66 258.93 486.06 268.62 493.26 277.87 500.33 286.5 507.32 294.37 514.32 301.37 528.71 312.09 543.75 320.03 540.54 332.26 539.29 344.48 540.09 356.71 542.88 368.94 547.43 381.16 553.39 393.39 560.27 405.62 567.53 417.84 574.59 430.07 580.88 442.3 585.91 454.52 589.26 466.75 590.68 478.98 590.04 491.21 587.41 503.43 582.98 515.66 569.62 525.6 556.07 534.47 542.39 542.11 528.67 548.43 514.97 553.4 501.37 557.03 487.93 559.41 474.72 560.7 461.77 561.1 449.15 560.84 436.89 560.21 425.01 559.51 413.53 559.05 402.47 559.13 391.81 560.03 381.55 561.99 372.06 553.75 362.9 546.95 354.03 541.61 345.39 537.68 328.69 534 312.25 533.01 295.75 533.8 278.93 533.92 270.25 532.9 261.35 530.9 252.24 527.75 242.87 523.35 244.81 511 245.97 498.65 246.25 486.31 245.63 473.96 244.16 461.61 241.95 449.26 239.19 436.92 236.1 424.57 232.91 412.22 229.89 399.87 227.28 387.53 225.28 375.18 224.06 362.83 223.71 350.49 224.26 338.14 225.67 325.79 236.64 318.32 247.87 309.98 259.35 300.91 271.08 291.26 283.02 281.22 295.16 270.98 307.46 260.74 319.89 250.71 332.39 241.06 344.92 231.95 357.42 223.52 369.86 215.87 382.17 209.05 394.29 203.09 411.99 195.8 417.8 193.62" stroke-dasharray="10 11" transform="rotate(44.44, 400, 400)" opacity="0.21"></path><path d="M415.5 205.9Q423.97 213.3 432.13 221.34 439.97 229.92 447.53 238.93 454.83 248.23 461.91 257.69 468.81 267.14 475.57 276.43 482.25 285.4 488.89 293.9 495.56 301.8 502.31 309 509.19 315.41 516.27 320.99 526.39 333.38 528.84 352.53 530.26 364 533.33 375.47 537.83 386.94 543.47 398.41 549.83 409.88 556.49 421.35 562.97 432.82 568.83 444.29 573.65 455.76 577.11 467.23 578.95 478.7 579.06 490.18 577.43 501.65 574.16 513.12 562.06 521.32 549.72 528.47 537.21 534.49 524.59 539.35 511.91 543.05 499.23 545.67 486.61 547.29 474.1 548.07 461.75 548.19 449.61 547.86 437.71 547.31 426.09 546.79 414.77 546.54 403.78 546.8 393.12 547.79 382.81 549.72 374.61 542.01 366.62 535.54 351.2 526.92 336.06 521.68 320.95 520.64 305.62 520.92 289.58 521.06 272.97 519.77 260.6 510.59 257.67 491.87 257.62 480.37 256.76 468.88 255.15 457.38 252.9 445.88 250.17 434.39 247.15 422.89 244.04 411.4 241.08 399.9 238.45 388.4 236.35 376.91 234.92 365.41 234.26 353.92 234.42 342.42 235.38 330.92 245.42 323.07 255.69 314.56 266.21 305.53 276.96 296.12 287.93 286.49 299.11 276.82 310.48 267.27 322 258 333.66 249.15 345.4 240.84 357.21 233.17 369.02 226.22 380.8 220.02 392.5 214.59 409.79 207.9 415.5 205.9" stroke-dasharray="11 5" transform="rotate(48.48, 400, 400)" opacity="0.42"></path><path d="M411.79 218.18Q419.1 225.08 426.18 232.54 433.04 240.5 439.72 248.85 446.25 257.51 452.66 266.34 458.99 275.23 465.27 284.04 471.56 292.64 477.9 300.91 484.32 308.74 490.88 316.01 497.62 322.65 504.58 328.59 515.03 341.36 518.71 359.61 520.61 370.3 523.85 380.99 528.24 391.68 533.52 402.37 539.37 413.05 545.44 423.74 551.36 434.43 556.77 445.12 561.36 455.81 564.85 466.5 567.02 477.19 567.75 487.87 566.99 498.56 564.79 509.25 553.93 515.76 542.83 521.31 531.52 525.88 520.06 529.46 508.48 532.11 496.84 533.89 485.17 534.92 473.52 535.33 461.94 535.27 450.47 534.93 439.14 534.49 427.98 534.14 417.03 534.08 406.31 534.5 395.84 535.57 385.63 537.44 378.5 530.28 371.49 524.17 357.69 515.62 343.92 510.03 329.87 508.32 315.47 508.05 300.27 508.36 284.48 507.93 272.54 500.64 269.23 483.8 268.87 473.17 267.79 462.54 266.07 451.91 263.8 441.28 261.12 430.65 258.19 420.02 255.19 409.39 252.3 398.75 249.69 388.12 247.52 377.49 245.91 366.86 244.97 356.23 244.76 345.6 245.27 334.97 254.38 326.95 263.7 318.48 273.24 309.67 282.99 300.66 292.96 291.59 303.14 282.59 313.51 273.79 324.07 265.33 334.78 257.29 345.62 249.78 356.57 242.87 367.6 236.61 378.67 231.02 389.75 226.1 406.29 220.01 411.79 218.18" stroke-dasharray="3 8" transform="rotate(52.52, 400, 400)" opacity="0.96"></path><path d="M407.01 230.45Q413.37 236.85 419.59 243.74 425.69 251.06 431.7 258.76 437.64 266.74 443.55 274.92 449.46 283.2 455.39 291.47 461.4 299.62 467.5 307.57 473.73 315.19 480.13 322.41 486.73 329.15 493.55 335.32 504.21 348.31 508.87 365.6 511.12 375.48 514.44 385.36 518.66 395.25 523.56 405.13 528.9 415.01 534.39 424.9 539.76 434.78 544.74 444.66 549.06 454.54 552.5 464.43 554.9 474.31 556.12 484.19 556.11 494.07 554.86 503.96 545.21 508.9 535.33 513.03 525.24 516.33 514.96 518.84 504.54 520.63 494.01 521.76 483.4 522.35 472.74 522.5 462.08 522.35 451.44 522.05 440.85 521.74 430.35 521.57 419.97 521.69 409.73 522.25 391.57 520.95 377.24 512.81 364.71 504.43 352.02 498.59 338.84 496.25 325.24 495.37 310.8 495.58 295.81 495.57 284.3 489.75 280.63 474.64 279.99 464.88 278.74 455.13 276.93 445.37 274.66 435.61 272.06 425.86 269.24 416.1 266.36 406.34 263.57 396.58 261 386.83 258.78 377.07 257.04 367.31 255.86 357.56 255.3 347.8 255.39 338.04 263.58 330.08 271.96 321.85 280.52 313.45 289.28 304.99 298.24 296.59 307.39 288.35 316.73 280.36 326.25 272.73 335.94 265.52 345.79 258.81 355.78 252.65 365.88 247.05 376.08 242.05 386.36 237.63 401.84 232.12 407.01 230.45" stroke-dasharray="0 11" transform="rotate(56.56, 400, 400)" opacity="0.25"></path><path d="M401.58 242.74Q412.79 254.93 423.83 268.65 434.88 283.45 446.15 298.75 457.84 313.9 470.13 328.24 483.21 341.2 497.2 352.29 499.29 370.41 505.08 388.52 513.58 406.63 523.35 424.74 532.71 442.85 540.08 460.97 544.19 479.08 544.35 497.19 527.18 503.66 509.2 507.58 490.58 509.35 471.51 509.64 452.2 509.25 432.85 509.07 413.67 510.01 394.81 512.87 383.51 501.46 372 492.99 360.12 487.37 347.74 484.23 334.78 482.98 321.17 482.82 306.89 482.91 291.95 482.38 291.86 464.62 289.58 446.86 285.49 429.1 280.29 411.33 274.87 393.57 270.15 375.81 266.94 358.05 265.78 340.29 280.52 324.82 295.91 309.22 311.97 294.16 328.73 280.24 346.16 267.94 364.18 257.56 382.7 249.19 401.58 242.74 401.58 242.74 401.58 242.74" stroke-dasharray="10 7" transform="rotate(60.599999999999994, 400, 400)" opacity="0.08"></path><path d="M396.02 255.02Q406.21 266.11 416.46 278.53 426.92 291.93 437.72 305.89 449.01 319.93 460.92 333.53 473.55 346.22 486.97 357.57 489.95 374 495.76 390.43 503.57 406.86 512.3 423.3 520.7 439.73 527.59 456.16 531.99 472.59 533.29 489.02 518.36 493.35 502.7 495.8 486.41 496.77 469.62 496.81 452.47 496.55 435.1 496.67 417.68 497.83 400.34 500.6 389.93 490.15 379.17 482.09 367.96 476.38 356.24 472.8 343.96 470.94 331.09 470.28 317.65 470.2 303.66 470.05 302.9 454.03 300.31 438.01 296.27 422 291.34 405.98 286.22 389.96 281.63 373.94 278.22 357.92 276.47 341.9 289.45 327.55 302.96 313.44 317.02 300.08 331.69 287.89 346.96 277.17 362.81 268.11 379.18 260.76 396.02 255.02 396.02 255.02 396.02 255.02" stroke-dasharray="10 9" transform="rotate(64.64, 400, 400)" opacity="0.42"></path><path d="M390.82 267.3Q400.27 277.29 409.92 288.39 419.88 300.38 430.24 312.94 441.09 325.73 452.51 338.36 464.54 350.47 477.24 361.7 480.81 376.43 486.45 391.16 493.54 405.89 501.25 420.62 508.7 435.36 515.04 450.09 519.54 464.82 521.69 479.55 508.87 482.22 495.42 483.61 481.41 484.07 466.9 484.03 451.99 483.96 436.77 484.36 421.35 485.68 405.83 488.32 396.09 478.85 385.93 471.28 375.33 465.61 364.24 461.7 352.66 459.31 340.59 458.09 328.04 457.63 315.07 457.49 313.73 443.19 310.94 428.89 307.01 414.6 302.38 400.3 297.6 386.01 293.2 371.71 289.7 357.42 287.49 343.12 298.79 330.21 310.49 317.78 322.64 306.19 335.27 295.71 348.4 286.52 362.05 278.73 383.51 269.82 390.82 267.3" stroke-dasharray="9 3" transform="rotate(68.68, 400, 400)" opacity="0.72"></path><path d="M386.45 279.57Q395.31 288.45 404.45 298.26 413.92 308.82 423.78 319.93 434.09 331.35 444.87 342.81 456.16 354.04 467.97 364.79 471.83 377.81 477.16 390.83 483.48 403.86 490.2 416.88 496.72 429.9 502.46 442.93 502.8 463.21 487.37 471.16 475.52 471.35 463.23 471.36 450.56 471.51 437.55 472.14 424.27 473.56 410.79 476.04 401.59 467.57 392 460.58 382.01 455.06 371.6 450.97 360.79 448.15 349.59 446.39 338.02 445.44 326.13 445.01 324.36 432.41 321.46 419.81 317.71 407.21 313.43 394.61 309.02 382.02 304.89 369.42 301.39 356.82 298.86 344.22 308.57 332.98 318.57 322.35 328.89 312.54 339.59 303.72 350.67 296 362.18 289.41 380.28 281.77 386.45 279.57" stroke-dasharray="7 4" transform="rotate(72.72, 400, 400)" opacity="0.36"></path><path d="M383.32 291.85Q391.63 299.62 400.22 308.13 409.13 317.26 418.38 326.89 427.99 336.85 437.97 346.97 448.34 357.08 459.09 366.98 462.99 378.3 467.87 389.62 473.39 400.93 479.15 412.25 484.77 423.57 489.85 434.89 491 452.23 478.54 458.58 468.72 458.7 458.54 458.83 448.03 459.19 437.2 460.01 426.11 461.48 414.78 463.76 406.12 456.31 397.14 449.96 387.82 444.73 378.19 440.6 368.25 437.48 358.03 435.27 347.55 433.82 336.84 432.95 334.77 422.01 331.88 411.08 328.36 400.14 324.48 389.21 320.49 378.27 316.67 367.34 313.3 356.41 310.59 345.47 318.81 336.05 327.21 327.25 335.84 319.2 344.73 311.97 353.9 305.62 363.38 300.18 378.25 293.73 383.32 291.85" stroke-dasharray="7 8" transform="rotate(76.76, 400, 400)" opacity="0.20"></path><path d="M381.69 304.13Q389.39 310.79 397.34 318.01 405.53 325.72 413.99 333.85 422.72 342.3 431.72 350.96 440.99 359.73 450.53 368.48 454.25 378.11 458.57 387.73 463.27 397.36 468.11 406.99 472.84 416.61 477.22 426.24 469.94 443.51 452.82 446.48 444.33 447.03 435.59 447.98 426.61 449.43 417.42 451.49 409.41 445.06 401.15 439.43 392.66 434.61 383.94 430.59 375.01 427.34 365.9 424.81 350.78 417.6 342.18 402.98 338.98 393.67 335.53 384.37 331.99 375.07 328.56 365.76 327.46 348.03 336.44 332.59 343.51 326.21 350.74 320.47 373.79 307.73 381.69 304.13" stroke-dasharray="1 9" transform="rotate(80.80000000000001, 400, 400)" opacity="0.86"></path><path d="M381.72 316.42Q395.78 327.9 410.55 340.85 426.04 354.89 442.22 369.53 449.24 385.44 457.06 401.35 461.7 425.43 446.08 434.35 432.64 436.04 418.48 439.2 403.94 428.98 388.81 420.95 373.17 415.09 357.13 411.16 352.37 395.76 346.58 380.35 340.55 364.94 335.15 349.52 346.23 338.46 357.61 329.25 375.57 319.17 381.72 316.42" stroke-dasharray="4 2" transform="rotate(84.84, 400, 400)" opacity="0.95"></path><path d="M383.42 328.69Q395.45 337.82 407.92 347.94 420.81 358.88 434.1 370.4 439.87 383.03 446.01 395.65 450.01 414.86 438.44 422.46 428.38 424.2 417.86 426.92 405.49 418.61 392.8 411.67 379.85 406.12 366.71 401.89 362.46 389.62 357.62 377.35 352.64 365.08 347.95 352.8 356.57 344.94 365.31 338.32 378.83 330.81 383.42 328.69" stroke-dasharray="2 8" transform="rotate(88.88, 400, 400)" opacity="0.63"></path><path d="M386.62 340.97Q396.17 347.76 405.94 355.14 415.91 363.05 426.07 371.39 430.45 380.77 434.96 390.16 430.52 408.54 415.62 414.64 405.87 408.31 395.98 402.73 385.99 397.93 375.94 393.89 372.44 384.71 368.67 375.53 366.09 359.22 373.72 347.7 383.37 342.49 386.62 340.97" stroke-dasharray="7 0" transform="rotate(92.92, 400, 400)" opacity="0.26"></path><path d="M391.03 353.25Q404.4 362.49 418.06 372.78 422.44 392.36 411.97 402.37 398.44 394.13 384.84 387.22 386.12 359.72 391.03 353.25" stroke-dasharray="4 3" transform="rotate(96.96, 400, 400)" opacity="0.96"></path></g></svg>