<?xml version="1.0" standalone="no"?>
<!DOCTYPE svg PUBLIC "-//W3C//DTD SVG 20010904//EN"
 "http://www.w3.org/TR/2001/REC-SVG-20010904/DTD/svg10.dtd">
<svg version="1.0" xmlns="http://www.w3.org/2000/svg"
 width="260.000000pt" height="260.000000pt" viewBox="0 0 260.000000 260.000000"
 preserveAspectRatio="xMidYMid meet">
<metadata>
Created by potrace 1.14, written by Peter Selinger 2001-2017
</metadata>
<g transform="translate(0.000000,260.000000) scale(0.100000,-0.100000)"
fill="#000000" stroke="none">
<path d="M0 1300 l0 -1300 1300 0 1300 0 0 1300 0 1300 -1300 0 -1300 0 0
-1300z m660 355 c0 -319 -10 -295 119 -295 l81 0 0 -85 0 -85 -163 0 c-188 0
-247 12 -296 62 -55 57 -66 109 -66 323 0 179 1 193 23 237 13 25 32 54 43 64
32 29 119 53 192 54 l67 0 0 -275z m469 245 c80 -45 86 -61 86 -223 l0 -142
-140 0 -140 0 -3 99 c-1 55 -8 106 -14 113 -7 9 -39 13 -104 13 l-94 0 0 86 0
86 183 -4 c173 -3 184 -4 226 -28z m641 -620 l0 -650 -125 0 c-112 0 -127 2
-145 20 -20 20 -20 33 -20 630 0 597 0 610 20 630 18 18 33 20 145 20 l125 0
0 -650z m-594 52 c67 -34 84 -99 84 -327 0 -318 -29 -365 -227 -373 l-103 -4
0 367 0 368 103 -5 c77 -4 112 -10 143 -26z m-558 -406 c1 -55 8 -106 14 -113
7 -9 42 -13 119 -13 l109 0 0 -86 0 -86 -192 4 c-182 3 -196 4 -243 28 -78 39
-95 82 -95 235 0 67 3 125 7 129 4 3 68 5 142 4 l136 -3 3 -99z m1702 -89 c0
-129 -4 -187 -12 -195 -9 -9 -77 -12 -245 -12 l-233 0 0 85 0 84 98 3 97 3 3
108 3 107 144 0 145 0 0 -183z"/>
</g>
</svg>
